<svg width="24" height="24" viewBox="0 0 24 24" fill="none" xmlns="http://www.w3.org/2000/svg">
  <path fill-rule="evenodd" clip-rule="evenodd" d="M14.3813 5.25629C14.723 4.91457 15.277 4.91457 15.6187 5.25628L21.7438 11.3813C21.9079 11.5454 22.0001 11.7679 22.0001 12C22.0001 12.2321 21.9079 12.4546 21.7438 12.6187L15.6187 18.7437C15.277 19.0854 14.723 19.0854 14.3813 18.7437C14.0396 18.402 14.0396 17.848 14.3813 17.5063L19.0126 12.875L2.875 12.875C2.39175 12.875 2 12.4832 2 12C2 11.5167 2.39175 11.125 2.875 11.125L19.0126 11.125L14.3813 6.49372C14.0396 6.15202 14.0396 5.598 14.3813 5.25629Z" fill="#626364"/>
</svg>

