<svg xmlns="http://www.w3.org/2000/svg" width="17" height="17" viewBox="0 0 17 17" fill="none">
    <path d="M9.94271 5.17334C10.495 5.17334 10.9427 4.72562 10.9427 4.17334C10.9427 3.62106 10.495 3.17334 9.94271 3.17334C9.39042 3.17334 8.94271 3.62106 8.94271 4.17334C8.94271 4.72562 9.39042 5.17334 9.94271 5.17334Z" fill="#8B620E"/>
    <path d="M9.09656 5.62043C9.33545 5.75895 9.41681 6.0649 9.27829 6.30379L9.06605 6.66982C9.55592 7.17989 10.218 7.5292 10.9748 7.61914C11.249 7.65173 11.4449 7.90044 11.4123 8.17466C11.3797 8.44887 11.131 8.64474 10.8568 8.61216C9.96283 8.50591 9.16837 8.12359 8.54918 7.56121L7.6379 9.13281C8.24456 9.85639 8.61045 10.7901 8.61045 11.8085C8.61045 12.0277 8.59348 12.2432 8.5607 12.4539C8.51823 12.7267 8.26261 12.9135 7.98976 12.871C7.7169 12.8285 7.53013 12.5729 7.5726 12.3001C7.59749 12.1402 7.61045 11.976 7.61045 11.8085C7.61045 10.9271 7.25099 10.1305 6.66942 9.55587C6.5074 9.39579 6.47405 9.14644 6.5883 8.9494L8.00515 6.5059C8.0154 6.48493 8.02718 6.46457 8.04046 6.44501L8.4132 5.80217C8.55172 5.56328 8.85767 5.48192 9.09656 5.62043Z" fill="#8B620E"/>
    <path fill-rule="evenodd" clip-rule="evenodd" d="M6.77604 11.8081C6.77604 13.0968 5.73137 14.1414 4.44271 14.1414C3.15404 14.1414 2.10938 13.0968 2.10938 11.8081C2.10938 10.5194 3.15404 9.47477 4.44271 9.47477C5.73137 9.47477 6.77604 10.5194 6.77604 11.8081ZM5.77604 11.8081C5.77604 12.5445 5.17909 13.1414 4.44271 13.1414C3.70633 13.1414 3.10938 12.5445 3.10938 11.8081C3.10938 11.0717 3.70633 10.4748 4.44271 10.4748C5.17909 10.4748 5.77604 11.0717 5.77604 11.8081Z" fill="#8B620E"/>
    <path fill-rule="evenodd" clip-rule="evenodd" d="M14.1094 11.8081C14.1094 13.0968 13.0647 14.1414 11.776 14.1414C10.4874 14.1414 9.44271 13.0968 9.44271 11.8081C9.44271 10.5194 10.4874 9.47477 11.776 9.47477C13.0647 9.47477 14.1094 10.5194 14.1094 11.8081ZM13.1094 11.8081C13.1094 12.5445 12.5124 13.1414 11.776 13.1414C11.0397 13.1414 10.4427 12.5445 10.4427 11.8081C10.4427 11.0717 11.0397 10.4748 11.776 10.4748C12.5124 10.4748 13.1094 11.0717 13.1094 11.8081Z" fill="#8B620E"/>
    <path fill-rule="evenodd" clip-rule="evenodd" d="M6.38169 3.99481C5.90481 3.71623 5.29239 3.87698 5.01381 4.35386L3.6687 6.65642C3.39012 7.1333 3.55087 7.74571 4.02775 8.0243L4.89121 8.52871C5.36808 8.80729 5.9805 8.64654 6.25909 8.16967L7.6042 5.86711C7.88278 5.39023 7.72203 4.77781 7.24515 4.49923L6.38169 3.99481ZM5.87727 4.85827L6.74073 5.36269L5.39562 7.66525L4.53216 7.16084L5.87727 4.85827Z" fill="#8B620E"/>
</svg>
