<svg width="17" height="18" viewBox="0 0 17 18" fill="none" xmlns="http://www.w3.org/2000/svg">
<circle cx="8.5" cy="9.0791" r="8.5" fill="#4A4A4A"/>
<path d="M12.1744 6.80173C12.5638 6.41007 12.5619 5.77691 12.1703 5.38752C11.7786 4.99813 11.1454 4.99997 10.7561 5.39163L12.1744 6.80173ZM8.5 9.07919L7.79084 8.37414C7.40305 8.76419 7.40305 9.39419 7.79084 9.78423L8.5 9.07919ZM10.7908 12.8017C11.1802 13.1934 11.8134 13.1952 12.205 12.8058C12.5967 12.4165 12.5985 11.7833 12.2092 11.3916L10.7908 12.8017ZM6.24394 5.39163C5.85456 4.99997 5.22139 4.99813 4.82974 5.38752C4.43808 5.77691 4.43624 6.41007 4.82563 6.80173L6.24394 5.39163ZM8.5 9.07919L9.20916 9.78423C9.59695 9.39419 9.59695 8.76419 9.20916 8.37414L8.5 9.07919ZM4.79084 11.3916C4.40145 11.7833 4.40329 12.4165 4.79495 12.8058C5.18661 13.1952 5.81977 13.1934 6.20916 12.8017L4.79084 11.3916ZM10.7561 5.39163L7.79084 8.37414L9.20916 9.78423L12.1744 6.80173L10.7561 5.39163ZM7.79084 9.78423L10.7908 12.8017L12.2092 11.3916L9.20916 8.37414L7.79084 9.78423ZM4.82563 6.80173L7.79084 9.78423L9.20916 8.37414L6.24394 5.39163L4.82563 6.80173ZM7.79084 8.37414L4.79084 11.3916L6.20916 12.8017L9.20916 9.78423L7.79084 8.37414Z" fill="white"/>
</svg>
