<svg width="32" height="32" viewBox="0 0 32 32" fill="none" xmlns="http://www.w3.org/2000/svg">
  <path d="M2.66675 7.83317C2.66675 7.18884 3.18908 6.6665 3.83341 6.6665H28.1667C28.8111 6.6665 29.3334 7.18884 29.3334 7.83317C29.3334 8.4775 28.8111 8.99984 28.1667 8.99984H3.83341C3.18908 8.99984 2.66675 8.4775 2.66675 7.83317Z" fill="#161617"/>
  <path d="M2.66675 24.1665C2.66675 23.5222 3.18908 22.9998 3.83341 22.9998H28.1667C28.8111 22.9998 29.3334 23.5222 29.3334 24.1665C29.3334 24.8108 28.8111 25.3332 28.1667 25.3332H3.83341C3.18908 25.3332 2.66675 24.8108 2.66675 24.1665Z" fill="#161617"/>
  <path d="M3.83341 14.8332C3.18908 14.8332 2.66675 15.3555 2.66675 15.9998C2.66675 16.6442 3.18908 17.1665 3.83341 17.1665H28.1667C28.8111 17.1665 29.3334 16.6442 29.3334 15.9998C29.3334 15.3555 28.8111 14.8332 28.1667 14.8332H3.83341Z" fill="#161617"/>
</svg>
