<svg width="24" height="24" viewBox="0 0 24 24" fill="none" xmlns="http://www.w3.org/2000/svg">
  <path fill-rule="evenodd" clip-rule="evenodd" d="M12.0005 2.5C9.51521 2.5 7.50049 4.51472 7.50049 7C7.50049 9.48528 9.51521 11.5 12.0005 11.5C14.4858 11.5 16.5005 9.48528 16.5005 7C16.5005 4.51472 14.4858 2.5 12.0005 2.5ZM9.25049 7C9.25049 5.48122 10.4817 4.25 12.0005 4.25C13.5193 4.25 14.7505 5.48122 14.7505 7C14.7505 8.51878 13.5193 9.75 12.0005 9.75C10.4817 9.75 9.25049 8.51878 9.25049 7Z" fill="#161617"/>
  <path fill-rule="evenodd" clip-rule="evenodd" d="M12.0005 12.5C7.94428 12.5 4.4869 15.0661 3.25141 18.6513C2.91717 19.6212 3.68846 20.5 4.59362 20.5H19.4075C20.3126 20.5 21.0839 19.6212 20.7497 18.6513C19.5142 15.0661 16.0568 12.5 12.0005 12.5ZM12.0005 14.25C15.1248 14.25 17.791 16.1151 18.9137 18.75H5.08736C6.21004 16.1151 8.8763 14.25 12.0005 14.25Z" fill="#161617"/>
</svg>
