<svg xmlns="http://www.w3.org/2000/svg" width="28" height="29" fill="none"><path fill="#FFC244" d="M22.105 24.693c-3.001 2.033-7.814 1.648-12.051.157-4.237-1.491-7.905-4.083-8.818-7.268-.907-3.179.935-6.945 3.203-9.962 2.269-3.016 4.957-5.29 7.97-5.726 3.013-.437 6.35.957 8.918 3.24 2.567 2.283 4.363 5.454 4.66 9.261.303 3.814-.887 8.264-3.882 10.298Z"/><path fill="#FFDA8E" fill-rule="evenodd" stroke="#4A4A4A" stroke-width="1.5" d="m17.182 6.484 6.96.8c.563.058.977.576.91 1.139l-.858 7.551a2.213 2.213 0 0 1-.8 1.469l-11.579 9.492a1.003 1.003 0 0 1-1.407-.163l-7.089-8.899a1.003 1.003 0 0 1 .164-1.407L15.22 7.055a2.652 2.652 0 0 1 1.962-.571Z" clip-rule="evenodd"/><path fill="#fff" fill-rule="evenodd" stroke="#4A4A4A" stroke-width="1.5" d="m18.913 4.433 7.24 2.861c.587.224.883.898.65 1.483l-3.093 7.858a2.459 2.459 0 0 1-1.28 1.346L8.15 24.37a1.114 1.114 0 0 1-1.463-.58L1.639 12.2a1.114 1.114 0 0 1 .58-1.463l14.425-6.255a2.946 2.946 0 0 1 2.27-.05Z" clip-rule="evenodd"/><path fill="#4A4A4A" fill-rule="evenodd" d="M9.416 13.165a1.33 1.33 0 1 0-2.57.689 1.33 1.33 0 0 0 2.57-.689Zm3.856-2.04a.636.636 0 0 1 .278.795l-.035.072-3.975 7.077a.636.636 0 0 1-1.144-.55l.035-.073 3.974-7.078a.636.636 0 0 1 .867-.243Zm.596 3.75a1.33 1.33 0 1 1 .689 2.57 1.33 1.33 0 0 1-.689-2.57Z" clip-rule="evenodd"/><path fill="#FFDA8E" fill-rule="evenodd" stroke="#4A4A4A" d="M21.605 10.984a1.5 1.5 0 1 1 1.32-1.661 1.517 1.517 0 0 1-1.32 1.66Z" clip-rule="evenodd"/><path fill="#4A4A4A" fill-rule="evenodd" d="M4.509.934a.5.5 0 0 1 .637.07l.056.07 2.473 3.727a.5.5 0 0 1-.777.623l-.057-.07L4.37 1.627a.5.5 0 0 1 .14-.693ZM2.894 5.257a.5.5 0 0 1 .626-.135l.076.049 2.229 1.741a.5.5 0 0 1-.54.837L5.209 7.7 2.98 5.96a.5.5 0 0 1-.086-.702Zm8.123-4.17a.5.5 0 0 0-.484-.42l-.09.006a.5.5 0 0 0-.42.484l-.07 3.266.007.09a.5.5 0 0 0 .993-.07l.07-3.267-.006-.09ZM25.589 26.057a.5.5 0 0 1-.636.075l-.071-.056-3.247-3.074a.5.5 0 0 1 .616-.782l.071.056 3.248 3.074a.5.5 0 0 1 .019.707Zm.601-4.575a.5.5 0 0 1-.58.272l-.084-.03-2.564-1.196a.5.5 0 0 1 .338-.937l.085.031 2.563 1.195a.5.5 0 0 1 .242.665Zm-6.916 6.152a.5.5 0 0 0 .566.3l.086-.026a.5.5 0 0 0 .3-.566l-.727-3.46-.026-.086a.5.5 0 0 0-.953.292l.728 3.46.026.086Z" clip-rule="evenodd"/></svg>
