<svg width="18" height="19" viewBox="0 0 18 19" fill="none" xmlns="http://www.w3.org/2000/svg">
	<path fill-rule="evenodd" clip-rule="evenodd" d="M9.00049 0.5C6.51521 0.5 4.50049 2.51472 4.50049 5C4.50049 7.48528 6.51521 9.5 9.00049 9.5C11.4858 9.5 13.5005 7.48528 13.5005 5C13.5005 2.51472 11.4858 0.5 9.00049 0.5ZM6.25049 5C6.25049 3.48122 7.48171 2.25 9.00049 2.25C10.5193 2.25 11.7505 3.48122 11.7505 5C11.7505 6.51878 10.5193 7.75 9.00049 7.75C7.48171 7.75 6.25049 6.51878 6.25049 5Z" fill="white"/>
	<path fill-rule="evenodd" clip-rule="evenodd" d="M9.00054 10.5C4.94428 10.5 1.4869 13.0661 0.251409 16.6513C-0.0828332 17.6212 0.688456 18.5 1.59362 18.5H16.4075C17.3126 18.5 18.0839 17.6212 17.7497 16.6513C16.5142 13.0661 13.0568 10.5 9.00054 10.5ZM9.00054 12.25C12.1248 12.25 14.791 14.1151 15.9137 16.75H2.08736C3.21004 14.1151 5.8763 12.25 9.00054 12.25Z" fill="white"/>
</svg>
